# This file uses centimeters as units for non-parametric coordinates.

mtllib cabinet.mtl
g default
v 12.000000 0.000000 7.000000
v 12.000000 0.000000 12.000000
v 4.500000 0.000000 12.000000
v 4.500000 0.000000 7.000000
v 4.500000 4.000000 7.250000
v 4.500000 0.500000 7.250000
v 11.500000 0.500000 7.250000
v 11.500000 4.000000 7.250000
v 4.500000 0.500000 11.750000
v 11.500000 0.500000 11.750000
v 12.000000 12.500000 7.000000
v 12.000000 12.500000 12.000000
v 11.500000 8.000000 7.250000
v 11.500000 4.500000 7.250000
v 11.500000 4.500000 11.750000
v 11.500000 8.000000 11.750000
v 4.500000 12.500000 7.000000
v 4.500000 8.000000 7.250000
v 4.500000 4.500000 7.250000
v 4.500000 4.000000 11.750000
v 11.500000 4.000000 11.750000
v 4.500000 4.500000 11.750000
v 11.500000 12.000000 7.250000
v 11.500000 8.500000 7.250000
v 11.500000 8.500000 11.750000
v 11.500000 12.000000 11.750000
v 4.500000 8.000000 11.750000
v 4.500000 12.000000 7.250000
v 4.500000 8.500000 7.250000
v 4.500000 8.500000 11.750000
v 4.500000 12.500000 12.000000
v 4.500000 12.000000 11.750000
vt 0.375000 0.750000
vt 0.625000 0.750000
vt 0.625000 1.000000
vt 0.375000 1.000000
vt 0.358333 0.250000
vt 0.358333 0.000000
vt 0.125000 0.000000
vt 0.125000 0.250000
vt 0.375000 0.983333
vt 0.625000 0.983333
vt 0.625000 0.750000
vt 0.375000 0.750000
vt 0.375000 0.500000
vt 0.625000 0.500000
vt 0.375000 0.500000
vt 0.375000 0.750000
vt 0.625000 0.750000
vt 0.625000 0.500000
vt 0.125000 0.000000
vt 0.375000 0.000000
vt 0.375000 0.250000
vt 0.125000 0.250000
vt 0.358333 0.250000
vt 0.358333 0.000000
vt 0.125000 0.000000
vt 0.125000 0.250000
vt 0.625000 0.266667
vt 0.375000 0.266667
vt 0.375000 0.500000
vt 0.625000 0.500000
vt 0.375000 0.983333
vt 0.625000 0.983333
vt 0.641667 0.000000
vt 0.641667 0.250000
vt 0.875000 0.250000
vt 0.875000 0.000000
vt 0.375000 0.500000
vt 0.375000 0.750000
vt 0.625000 0.750000
vt 0.625000 0.500000
vt 0.625000 0.266667
vt 0.375000 0.266667
vt 0.358333 0.250000
vt 0.358333 0.000000
vt 0.125000 0.000000
vt 0.125000 0.250000
vt 0.641667 0.000000
vt 0.641667 0.250000
vt 0.875000 0.250000
vt 0.875000 0.000000
vt 0.375000 0.983333
vt 0.625000 0.983333
vt 0.625000 0.000000
vt 0.875000 0.000000
vt 0.875000 0.250000
vt 0.625000 0.250000
vt 0.625000 0.266667
vt 0.375000 0.266667
vt 0.641667 0.000000
vt 0.641667 0.250000
vt 0.875000 0.250000
vt 0.875000 0.000000
vt 0.387500 0.170000
vt 0.387500 0.240000
vt 0.612500 0.240000
vt 0.612500 0.170000
vt 0.612500 0.080000
vt 0.612500 0.010000
vt 0.387500 0.010000
vt 0.612500 0.160000
vt 0.612500 0.090000
vt 0.387500 0.080000
vt 0.387500 0.090000
vt 0.387500 0.160000
vn 0.000000 -1.000000 0.000000
vn 0.000000 -1.000000 0.000000
vn 0.000000 -1.000000 0.000000
vn 0.000000 -1.000000 0.000000
vn -0.000000 0.000000 1.000000
vn -0.000000 0.000000 1.000000
vn -0.000000 0.000000 1.000000
vn -0.000000 0.000000 1.000000
vn -0.000000 1.000000 0.000000
vn -0.000000 1.000000 0.000000
vn -0.000000 1.000000 0.000000
vn -0.000000 1.000000 0.000000
vn 1.000000 0.000000 0.000000
vn 1.000000 0.000000 0.000000
vn 1.000000 0.000000 0.000000
vn 1.000000 0.000000 0.000000
vn -1.000000 0.000000 -0.000000
vn -1.000000 0.000000 -0.000000
vn -1.000000 0.000000 -0.000000
vn -1.000000 0.000000 -0.000000
vn 0.000000 0.000000 -1.000000
vn 0.000000 0.000000 -1.000000
vn 0.000000 0.000000 -1.000000
vn 0.000000 0.000000 -1.000000
vn -0.000000 0.000000 1.000000
vn -0.000000 0.000000 1.000000
vn -0.000000 0.000000 1.000000
vn -0.000000 0.000000 1.000000
vn 0.000000 -1.000000 0.000000
vn 0.000000 -1.000000 0.000000
vn 0.000000 -1.000000 0.000000
vn 0.000000 -1.000000 0.000000
vn -0.000000 1.000000 0.000000
vn -0.000000 1.000000 0.000000
vn -0.000000 1.000000 0.000000
vn -0.000000 1.000000 0.000000
vn 0.000000 0.000000 -1.000000
vn 0.000000 0.000000 -1.000000
vn 0.000000 0.000000 -1.000000
vn 0.000000 0.000000 -1.000000
vn -1.000000 0.000000 -0.000000
vn -1.000000 0.000000 -0.000000
vn -1.000000 0.000000 -0.000000
vn -1.000000 0.000000 -0.000000
vn 0.000000 -1.000000 0.000000
vn 0.000000 -1.000000 0.000000
vn 0.000000 -1.000000 0.000000
vn 0.000000 -1.000000 0.000000
vn -0.000000 0.000000 1.000000
vn -0.000000 0.000000 1.000000
vn -0.000000 0.000000 1.000000
vn -0.000000 0.000000 1.000000
vn 0.000000 0.000000 -1.000000
vn 0.000000 0.000000 -1.000000
vn 0.000000 0.000000 -1.000000
vn 0.000000 0.000000 -1.000000
vn -0.000000 1.000000 0.000000
vn -0.000000 1.000000 0.000000
vn -0.000000 1.000000 0.000000
vn -0.000000 1.000000 0.000000
vn -0.000000 0.000000 1.000000
vn -0.000000 0.000000 1.000000
vn -0.000000 0.000000 1.000000
vn -0.000000 0.000000 1.000000
vn 0.000000 -1.000000 0.000000
vn 0.000000 -1.000000 0.000000
vn 0.000000 -1.000000 0.000000
vn 0.000000 -1.000000 0.000000
vn -0.000000 1.000000 0.000000
vn -0.000000 1.000000 0.000000
vn -0.000000 1.000000 0.000000
vn -0.000000 1.000000 0.000000
vn 0.000000 0.000000 -1.000000
vn 0.000000 0.000000 -1.000000
vn 0.000000 0.000000 -1.000000
vn 0.000000 0.000000 -1.000000
vn -1.000000 0.000000 -0.000000
vn -1.000000 0.000000 -0.000000
vn -1.000000 0.000000 -0.000000
vn -1.000000 0.000000 -0.000000
vn -1.000000 0.000000 -0.000000
vn -1.000000 0.000000 -0.000000
vn -1.000000 0.000000 -0.000000
vn -1.000000 0.000000 -0.000000
vn -1.000000 0.000000 -0.000000
vn -1.000000 0.000000 -0.000000
vn -1.000000 0.000000 -0.000000
vn -1.000000 0.000000 -0.000000
vn -1.000000 0.000000 -0.000000
vn -1.000000 0.000000 -0.000000
vn -1.000000 0.000000 -0.000000
vn -1.000000 0.000000 -0.000000
vn -1.000000 0.000000 -0.000000
vn -1.000000 0.000000 -0.000000
vn -1.000000 0.000000 -0.000000
vn -1.000000 0.000000 -0.000000
s 1
g filing_cabinate:pCube8 group5
usemtl aiStandardSurface3SG
f 1/1/1 2/2/2 4/4/3
f 4/4/3 2/2/2 3/3/4
s 2
f 5/5/5 6/6/6 8/8/7
f 8/8/7 6/6/6 7/7/8
s 3
f 6/9/9 9/10/10 7/12/11
f 7/12/11 9/10/10 10/11/12
s 4
f 11/13/13 12/14/14 1/1/15
f 1/1/15 12/14/14 2/2/16
s 5
f 13/15/17 14/16/18 16/18/19
f 16/18/19 14/16/18 15/17/20
s 6
f 1/19/21 4/20/22 11/22/23
f 11/22/23 4/20/22 17/21/24
s 7
f 18/23/25 19/24/26 13/26/27
f 13/26/27 19/24/26 14/25/28
s 8
f 20/27/29 5/28/30 21/30/31
f 21/30/31 5/28/30 8/29/32
s 9
f 19/31/33 22/32/34 14/16/35
f 14/16/35 22/32/34 15/17/36
s 10
f 9/33/37 20/34/38 10/36/39
f 10/36/39 20/34/38 21/35/40
s 11
f 23/37/41 24/38/42 26/40/43
f 26/40/43 24/38/42 25/39/44
s 12
f 27/41/45 18/42/46 16/18/47
f 16/18/47 18/42/46 13/15/48
s 13
f 28/43/49 29/44/50 23/46/51
f 23/46/51 29/44/50 24/45/52
s 14
f 22/47/53 27/48/54 15/50/55
f 15/50/55 27/48/54 16/49/56
s 15
f 29/51/57 30/52/58 24/38/59
f 24/38/59 30/52/58 25/39/60
s 16
f 3/53/61 2/54/62 31/56/63
f 31/56/63 2/54/62 12/55/64
s 17
f 32/57/65 28/58/66 26/40/67
f 26/40/67 28/58/66 23/37/68
s 18
f 17/21/69 31/56/70 11/13/71
f 11/13/71 31/56/70 12/14/72
s 19
f 30/59/73 32/60/74 25/62/75
f 25/62/75 32/60/74 26/61/76
s 20
f 29/63/77 28/64/78 17/21/79
f 30/66/80 31/56/81 32/65/82
f 31/56/81 17/21/79 32/65/82
f 17/21/79 28/64/78 32/65/82
f 31/56/81 30/66/80 3/53/83
f 30/66/80 27/70/84 3/53/83
f 27/70/84 22/71/85 3/53/83
f 22/71/85 20/67/86 3/53/83
f 20/67/86 9/68/87 3/53/83
f 4/20/88 3/53/83 6/69/89
f 9/68/87 6/69/89 3/53/83
f 17/21/79 4/20/88 29/63/77
f 20/67/86 22/71/85 5/72/90
f 22/71/85 19/73/91 5/72/90
f 27/70/84 30/66/80 18/74/92
f 30/66/80 29/63/77 18/74/92
f 29/63/77 4/20/88 18/74/92
f 18/74/92 4/20/88 19/73/91
f 19/73/91 4/20/88 5/72/90
f 4/20/88 6/69/89 5/72/90
s 22
f 8/29/93 7/12/94 21/30/95
f 21/30/95 7/12/94 10/11/96
g default
v 12.000000 0.000000 7.000000
v 12.000000 0.000000 12.000000
v 4.500000 0.000000 12.000000
v 4.500000 0.000000 7.000000
v 4.500000 4.000000 7.250000
v 4.500000 0.500000 7.250000
v 11.500000 0.500000 7.250000
v 11.500000 4.000000 7.250000
v 4.500000 0.500000 11.750000
v 11.500000 0.500000 11.750000
v 12.000000 12.500000 7.000000
v 12.000000 12.500000 12.000000
v 11.500000 8.000000 7.250000
v 11.500000 4.500000 7.250000
v 11.500000 4.500000 11.750000
v 11.500000 8.000000 11.750000
v 4.500000 12.500000 7.000000
v 4.500000 8.000000 7.250000
v 4.500000 4.500000 7.250000
v 4.500000 4.000000 11.750000
v 11.500000 4.000000 11.750000
v 4.500000 4.500000 11.750000
v 11.500000 12.000000 7.250000
v 11.500000 8.500000 7.250000
v 11.500000 8.500000 11.750000
v 11.500000 12.000000 11.750000
v 4.500000 8.000000 11.750000
v 4.500000 12.000000 7.250000
v 4.500000 8.500000 7.250000
v 4.500000 8.500000 11.750000
v 4.500000 12.500000 12.000000
v 4.500000 12.000000 11.750000
vt 0.375000 0.750000
vt 0.625000 0.750000
vt 0.625000 1.000000
vt 0.375000 1.000000
vt 0.358333 0.250000
vt 0.358333 0.000000
vt 0.125000 0.000000
vt 0.125000 0.250000
vt 0.375000 0.983333
vt 0.625000 0.983333
vt 0.625000 0.750000
vt 0.375000 0.750000
vt 0.375000 0.500000
vt 0.625000 0.500000
vt 0.375000 0.500000
vt 0.375000 0.750000
vt 0.625000 0.750000
vt 0.625000 0.500000
vt 0.125000 0.000000
vt 0.375000 0.000000
vt 0.375000 0.250000
vt 0.125000 0.250000
vt 0.358333 0.250000
vt 0.358333 0.000000
vt 0.125000 0.000000
vt 0.125000 0.250000
vt 0.625000 0.266667
vt 0.375000 0.266667
vt 0.375000 0.500000
vt 0.625000 0.500000
vt 0.375000 0.983333
vt 0.625000 0.983333
vt 0.641667 0.000000
vt 0.641667 0.250000
vt 0.875000 0.250000
vt 0.875000 0.000000
vt 0.375000 0.500000
vt 0.375000 0.750000
vt 0.625000 0.750000
vt 0.625000 0.500000
vt 0.625000 0.266667
vt 0.375000 0.266667
vt 0.358333 0.250000
vt 0.358333 0.000000
vt 0.125000 0.000000
vt 0.125000 0.250000
vt 0.641667 0.000000
vt 0.641667 0.250000
vt 0.875000 0.250000
vt 0.875000 0.000000
vt 0.375000 0.983333
vt 0.625000 0.983333
vt 0.625000 0.000000
vt 0.875000 0.000000
vt 0.875000 0.250000
vt 0.625000 0.250000
vt 0.625000 0.266667
vt 0.375000 0.266667
vt 0.641667 0.000000
vt 0.641667 0.250000
vt 0.875000 0.250000
vt 0.875000 0.000000
vt 0.387500 0.170000
vt 0.387500 0.240000
vt 0.612500 0.240000
vt 0.612500 0.170000
vt 0.612500 0.080000
vt 0.612500 0.010000
vt 0.387500 0.010000
vt 0.612500 0.160000
vt 0.612500 0.090000
vt 0.387500 0.080000
vt 0.387500 0.090000
vt 0.387500 0.160000
vn 0.000000 -1.000000 0.000000
vn 0.000000 -1.000000 0.000000
vn 0.000000 -1.000000 0.000000
vn 0.000000 -1.000000 0.000000
vn -0.000000 0.000000 1.000000
vn -0.000000 0.000000 1.000000
vn -0.000000 0.000000 1.000000
vn -0.000000 0.000000 1.000000
vn -0.000000 1.000000 0.000000
vn -0.000000 1.000000 0.000000
vn -0.000000 1.000000 0.000000
vn -0.000000 1.000000 0.000000
vn 1.000000 0.000000 0.000000
vn 1.000000 0.000000 0.000000
vn 1.000000 0.000000 0.000000
vn 1.000000 0.000000 0.000000
vn -1.000000 0.000000 -0.000000
vn -1.000000 0.000000 -0.000000
vn -1.000000 0.000000 -0.000000
vn -1.000000 0.000000 -0.000000
vn 0.000000 0.000000 -1.000000
vn 0.000000 0.000000 -1.000000
vn 0.000000 0.000000 -1.000000
vn 0.000000 0.000000 -1.000000
vn -0.000000 0.000000 1.000000
vn -0.000000 0.000000 1.000000
vn -0.000000 0.000000 1.000000
vn -0.000000 0.000000 1.000000
vn 0.000000 -1.000000 0.000000
vn 0.000000 -1.000000 0.000000
vn 0.000000 -1.000000 0.000000
vn 0.000000 -1.000000 0.000000
vn -0.000000 1.000000 0.000000
vn -0.000000 1.000000 0.000000
vn -0.000000 1.000000 0.000000
vn -0.000000 1.000000 0.000000
vn 0.000000 0.000000 -1.000000
vn 0.000000 0.000000 -1.000000
vn 0.000000 0.000000 -1.000000
vn 0.000000 0.000000 -1.000000
vn -1.000000 0.000000 -0.000000
vn -1.000000 0.000000 -0.000000
vn -1.000000 0.000000 -0.000000
vn -1.000000 0.000000 -0.000000
vn 0.000000 -1.000000 0.000000
vn 0.000000 -1.000000 0.000000
vn 0.000000 -1.000000 0.000000
vn 0.000000 -1.000000 0.000000
vn -0.000000 0.000000 1.000000
vn -0.000000 0.000000 1.000000
vn -0.000000 0.000000 1.000000
vn -0.000000 0.000000 1.000000
vn 0.000000 0.000000 -1.000000
vn 0.000000 0.000000 -1.000000
vn 0.000000 0.000000 -1.000000
vn 0.000000 0.000000 -1.000000
vn -0.000000 1.000000 0.000000
vn -0.000000 1.000000 0.000000
vn -0.000000 1.000000 0.000000
vn -0.000000 1.000000 0.000000
vn -0.000000 0.000000 1.000000
vn -0.000000 0.000000 1.000000
vn -0.000000 0.000000 1.000000
vn -0.000000 0.000000 1.000000
vn 0.000000 -1.000000 0.000000
vn 0.000000 -1.000000 0.000000
vn 0.000000 -1.000000 0.000000
vn 0.000000 -1.000000 0.000000
vn -0.000000 1.000000 0.000000
vn -0.000000 1.000000 0.000000
vn -0.000000 1.000000 0.000000
vn -0.000000 1.000000 0.000000
vn 0.000000 0.000000 -1.000000
vn 0.000000 0.000000 -1.000000
vn 0.000000 0.000000 -1.000000
vn 0.000000 0.000000 -1.000000
vn -1.000000 0.000000 -0.000000
vn -1.000000 0.000000 -0.000000
vn -1.000000 0.000000 -0.000000
vn -1.000000 0.000000 -0.000000
vn -1.000000 0.000000 -0.000000
vn -1.000000 0.000000 -0.000000
vn -1.000000 0.000000 -0.000000
vn -1.000000 0.000000 -0.000000
vn -1.000000 0.000000 -0.000000
vn -1.000000 0.000000 -0.000000
vn -1.000000 0.000000 -0.000000
vn -1.000000 0.000000 -0.000000
vn -1.000000 0.000000 -0.000000
vn -1.000000 0.000000 -0.000000
vn -1.000000 0.000000 -0.000000
vn -1.000000 0.000000 -0.000000
vn -1.000000 0.000000 -0.000000
vn -1.000000 0.000000 -0.000000
vn -1.000000 0.000000 -0.000000
vn -1.000000 0.000000 -0.000000
s 1
g filing_cabinate:pCube8 group5
f 33/75/97 34/76/98 36/78/99
f 36/78/99 34/76/98 35/77/100
s 2
f 37/79/101 38/80/102 40/82/103
f 40/82/103 38/80/102 39/81/104
s 3
f 38/83/105 41/84/106 39/86/107
f 39/86/107 41/84/106 42/85/108
s 4
f 43/87/109 44/88/110 33/75/111
f 33/75/111 44/88/110 34/76/112
s 5
f 45/89/113 46/90/114 48/92/115
f 48/92/115 46/90/114 47/91/116
s 6
f 33/93/117 36/94/118 43/96/119
f 43/96/119 36/94/118 49/95/120
s 7
f 50/97/121 51/98/122 45/100/123
f 45/100/123 51/98/122 46/99/124
s 8
f 52/101/125 37/102/126 53/104/127
f 53/104/127 37/102/126 40/103/128
s 9
f 51/105/129 54/106/130 46/90/131
f 46/90/131 54/106/130 47/91/132
s 10
f 41/107/133 52/108/134 42/110/135
f 42/110/135 52/108/134 53/109/136
s 11
f 55/111/137 56/112/138 58/114/139
f 58/114/139 56/112/138 57/113/140
s 12
f 59/115/141 50/116/142 48/92/143
f 48/92/143 50/116/142 45/89/144
s 13
f 60/117/145 61/118/146 55/120/147
f 55/120/147 61/118/146 56/119/148
s 14
f 54/121/149 59/122/150 47/124/151
f 47/124/151 59/122/150 48/123/152
s 15
f 61/125/153 62/126/154 56/112/155
f 56/112/155 62/126/154 57/113/156
s 16
f 35/127/157 34/128/158 63/130/159
f 63/130/159 34/128/158 44/129/160
s 17
f 64/131/161 60/132/162 58/114/163
f 58/114/163 60/132/162 55/111/164
s 18
f 49/95/165 63/130/166 43/87/167
f 43/87/167 63/130/166 44/88/168
s 19
f 62/133/169 64/134/170 57/136/171
f 57/136/171 64/134/170 58/135/172
s 20
f 61/137/173 60/138/174 49/95/175
f 62/140/176 63/130/177 64/139/178
f 63/130/177 49/95/175 64/139/178
f 49/95/175 60/138/174 64/139/178
f 63/130/177 62/140/176 35/127/179
f 62/140/176 59/144/180 35/127/179
f 59/144/180 54/145/181 35/127/179
f 54/145/181 52/141/182 35/127/179
f 52/141/182 41/142/183 35/127/179
f 36/94/184 35/127/179 38/143/185
f 41/142/183 38/143/185 35/127/179
f 49/95/175 36/94/184 61/137/173
f 52/141/182 54/145/181 37/146/186
f 54/145/181 51/147/187 37/146/186
f 59/144/180 62/140/176 50/148/188
f 62/140/176 61/137/173 50/148/188
f 61/137/173 36/94/184 50/148/188
f 50/148/188 36/94/184 51/147/187
f 51/147/187 36/94/184 37/146/186
f 36/94/184 38/143/185 37/146/186
s 22
f 40/103/189 39/86/190 53/104/191
f 53/104/191 39/86/190 42/85/192
